#!OML:ASF F:\VICON\USERDATA\INSTALL\rory3\rory3.ASF
:FULLY-SPECIFIED
:DEGREES
379
root 4.73132 17.2103 2.92627 10.1134 -6.60724 -6.88047
lowerback 1.82164 -0.912808 4.22618
upperback 1.28529 -1.16028 1.25695
thorax 0.240648 -0.559954 -1.05928
lowerneck -12.4891 0.559383 -1.41257
upperneck 37.9972 0.641957 1.20803
head 15.4109 0.168446 0.853813
rclavicle 2.33572e-014 8.34896e-015
rhumerus -34.5234 13.7298 -39.1105
rradius 70.9608
rwrist -5.46434
rhand -11.92 -38.4182
rfingers 7.12502
rthumb 14.1341 -67.9174
lclavicle 2.33572e-014 8.34896e-015
lhumerus -11.4248 -4.11437 19.9255
lradius 28.5024
lwrist 8.83129
lhand -24.9699 -30.6842
lfingers 7.12502
lthumb 1.54063 -0.710037
rfemur -71.6155 -5.87064 19.2681
rtibia 106.67
rfoot 43.6744 5.33098
rtoes -10.2757
lfemur -24.7825 1.05924 -22.5847
ltibia 35.6155
lfoot -18.1767 3.99525
ltoes 13.6493
380
root 4.73111 17.2173 2.92442 10.1058 -6.62276 -6.94483
lowerback 2.04497 -0.94202 4.19625
upperback 1.15613 -1.18244 1.30054
thorax -0.0167512 -0.577444 -0.992306
lowerneck -12.1068 0.625603 -1.30166
upperneck 37.9448 0.788818 0.978449
head 15.2934 0.214588 0.756742
rclavicle 2.47487e-014 -1.66979e-014
rhumerus -35.0199 13.9179 -39.2716
rradius 71.016
rwrist -5.35007
rhand -11.856 -38.8137
rfingers 7.12502
rthumb 14.1958 -68.3086
lclavicle 2.47487e-014 -1.66979e-014
lhumerus -11.9073 -4.45648 20.1536
lradius 28.3215
lwrist 8.58075
lhand -25.2105 -28.6297
lfingers 7.12502
lthumb 1.30822 1.34606
rfemur -72.1223 -5.86098 19.4561
rtibia 106.934
rfoot 43.4596 5.92536
rtoes -10.8624
lfemur -24.7083 1.12803 -22.5099
ltibia 35.4643
lfoot -18.0609 3.98336
ltoes 13.5044
381
root 4.73034 17.2271 2.92252 10.057 -6.59386 -6.95335
lowerback 2.22168 -0.962684 4.15242
upperback 1.10633 -1.19907 1.28977
thorax -0.167075 -0.589075 -0.974861
lowerneck -11.7944 0.648232 -1.25804
upperneck 37.833 0.814221 0.952293
head 15.1639 0.228608 0.738455
rclavicle -1.71949e-014 2.66371e-014
rhumerus -35.5245 13.9214 -39.4579
rradius 70.9439
rwrist -5.29422
rhand -11.9842 -39.2899
rfingers 7.12502
rthumb 14.0723 -68.7935
lclavicle -1.71949e-014 2.66371e-014
lhumerus -12.2435 -4.96134 20.3235
lradius 28.2782
lwrist 8.71713
lhand -25.2455 -27.32
lfingers 7.12502
lthumb 1.27443 2.65592
rfemur -72.5882 -5.95482 19.6061
rtibia 107.188
rfoot 43.2732 6.47277
rtoes -11.5701
lfemur -24.5783 1.2224 -22.494
ltibia 35.2889
lfoot -17.9672 3.89279
ltoes 13.3929
382
root 4.72938 17.2374 2.9211 10.0141 -6.60617 -6.92985
lowerback 2.2622 -0.945587 4.07603
upperback 1.17673 -1.17808 1.25895
thorax -0.115681 -0.577073 -0.964373
lowerneck -11.7298 0.679628 -1.17821
upperneck 37.7291 0.839621 0.95041
head 15.0975 0.251706 0.725975
rclavicle 1.08338e-014 -3.97569e-016
rhumerus -35.8893 13.7824 -39.6285
rradius 70.8112
rwrist -5.24244
rhand -12.1727 -39.3428
rfingers 7.12502
rthumb 13.8906 -68.8589
lclavicle 1.08338e-014 -3.97569e-016
lhumerus -12.3971 -5.22655 20.4814
lradius 28.3012
lwrist 9.07385
lhand -24.8769 -28.0549
lfingers 7.12502
lthumb 1.63042 1.91865
rfemur -73.0677 -6.01316 19.7072
rtibia 107.396
rfoot 43.4568 6.42249
rtoes -11.6559
lfemur -24.4526 1.36988 -22.5214
ltibia 35.105
lfoot -17.8767 3.73109
ltoes 13.4845
383
root 4.72948 17.2477 2.91837 9.95457 -6.64473 -6.96104
lowerback 2.48373 -0.95268 4.00692
upperback 1.18555 -1.17718 1.27902
thorax -0.228907 -0.578721 -0.901479
lowerneck -11.7879 0.72378 -1.07507
upperneck 37.7266 0.913016 0.856306
head 15.1103 0.284626 0.679917
rclavicle 1.2921e-015 2.66371e-014
rhumerus -36.0768 13.7146 -39.7346
rradius 70.6076
rwrist -5.18392
rhand -12.0897 -38.7754
rfingers 7.12502
rthumb 13.9705 -68.286
lclavicle 1.2921e-015 2.66371e-014
lhumerus -12.7235 -5.47654 20.6879
lradius 28.3966
lwrist 9.31566
lhand -25.1536 -29.4981
lfingers 7.12502
lthumb 1.3632 0.477265
rfemur -73.5082 -6.02557 19.8519
rtibia 107.565
rfoot 43.8777 6.49053
rtoes -11.2683
lfemur -24.3029 1.51436 -22.4983
ltibia 34.9286
lfoot -17.7696 3.61337
ltoes 13.5091
384
root 4.73129 17.2583 2.91933 9.86701 -6.56618 -7.03416
lowerback 2.70154 -0.987939 4.03722
upperback 1.21905 -1.21264 1.30507
thorax -0.318037 -0.597486 -0.88711
lowerneck -12.0303 0.713531 -0.969958
upperneck 37.8042 0.905918 0.763821
head 15.2076 0.28328 0.62347
rclavicle 7.7526e-015 -1.63003e-014
rhumerus -36.1926 13.5797 -39.802
rradius 70.3176
rwrist -5.1889
rhand -11.5249 -38.7619
rfingers 7.12502
rthumb 14.5148 -68.2342
lclavicle 7.7526e-015 -1.63003e-014
lhumerus -13.0253 -5.41048 20.9056
lradius 28.9737
lwrist 9.93338
lhand -24.5988 -29.4424
lfingers 7.12502
lthumb 1.89902 0.528928
rfemur -73.8583 -6.15917 20.0444
rtibia 107.721
rfoot 44.124 7.20463
rtoes -11.5078
lfemur -24.1069 1.53175 -22.4198
ltibia 34.7712
lfoot -17.7037 3.56377
ltoes 13.5025
